<?xml version="1.0" encoding="UTF-8"?>
<!DOCTYPE svg PUBLIC "-//W3C//DTD SVG 1.1//EN" "http://www.w3.org/Graphics/SVG/1.1/DTD/svg11.dtd">
<!-- Creator: CorelDRAW X8 -->
<svg xmlns="http://www.w3.org/2000/svg" xml:space="preserve" width="211.516mm" height="140.424mm" version="1.1" style="shape-rendering:geometricPrecision; text-rendering:geometricPrecision; image-rendering:optimizeQuality; fill-rule:evenodd; clip-rule:evenodd"
viewBox="0 0 18202 12084"
 xmlns:xlink="http://www.w3.org/1999/xlink">
 <defs>
  <style type="text/css">
   <![CDATA[
    .fil0 {fill:black}
   ]]>
  </style>
 </defs>
 <g id="Layer_x0020_1">
  <metadata id="CorelCorpID_0Corel-Layer"/>
  <path class="fil0" d="M18202 3938l-1 0 0 2276 0 0c0,797 -241,1569 -703,2280 -459,708 -1137,1356 -2009,1909 -856,542 -1851,962 -2934,1247 -1081,285 -2250,434 -3453,434 -1204,0 -2373,-149 -3454,-434 -1083,-285 -2078,-705 -2934,-1247 -872,-553 -1550,-1201 -2009,-1909 -462,-711 -704,-1482 -704,-2280l1 0c-1,-1529 -43,-1487 308,-2833 53,-111 169,-523 1273,-983 103,-66 206,-131 307,-199 238,-160 518,-216 789,-271l2 0c195,-39 397,-80 563,-158 159,-74 316,-192 482,-317l1 0 0 0 0 0c251,-189 510,-383 840,-488 487,-155 984,-289 1486,-390 180,-36 374,-135 579,-240l0 0 1 -1c282,-144 574,-293 904,-325 305,-30 613,21 911,71l2 0c229,38 445,74 651,74 338,0 633,152 919,298 52,26 103,54 156,79 92,45 194,92 293,121 45,12 89,22 131,26 102,10 206,6 313,-4 105,-9 220,-27 337,-45l0 0c291,-45 593,-91 895,-30 343,69 610,297 845,498l1 1c173,148 337,288 495,338 468,149 935,299 1380,507 21,8 41,17 61,26 161,64 340,90 510,115 276,41 552,85 789,244 145,98 309,181 468,262 537,271 1075,507 1333,911 89,139 175,222 175,437zm-3321 2194c-127,27 -257,-38 -312,-156 -62,-137 -4,-298 131,-364 89,-43 186,-77 281,-102 82,-21 151,-33 209,-42 81,-14 134,-23 175,-52 44,-31 85,-89 145,-203 109,-207 276,-357 438,-501l1 -1c115,-104 225,-202 282,-298l0 0c29,-48 48,-138 53,-243 4,-98 -6,-206 -36,-305l0 -1c-11,-40 -24,-70 -36,-93 -14,-26 -19,-34 -20,-34 -137,-69 -192,-235 -124,-372l0 0c68,-137 235,-192 372,-124l0 0c181,91 285,280 341,468 86,293 86,719 -74,988 -100,168 -245,298 -389,427 -66,60 -131,117 -187,176 -54,56 -99,113 -130,171 -113,213 -221,336 -338,413 -118,78 -240,107 -381,131 -52,8 -105,17 -160,32 -56,14 -116,34 -185,66 -19,8 -38,15 -56,19zm-6118 -2710c-371,-19 -744,-126 -1067,-310 -312,-177 -539,-404 -655,-613l0 0 0 -1c-74,-134 -27,-301 107,-376l0 0 1 -1c134,-73 302,-25 376,108l0 0 1 1c83,151 250,295 459,408 211,115 464,197 714,223 383,40 753,-47 1059,-285 16,-12 28,-23 35,-33 0,-1 4,-5 4,-5 1,-13 -6,-43 -55,-111 -36,-51 -94,-118 -184,-203 -44,-41 -87,-83 -131,-125l0 0 0 -1c-138,-133 -171,-165 -405,-297 -133,-76 -180,-245 -105,-378l0 0 0 0c76,-133 244,-180 378,-105l0 0 0 0c142,81 229,134 301,189 73,55 132,111 217,194 42,40 83,80 125,119 98,92 203,201 282,323 83,127 138,268 131,421 -9,185 -109,338 -253,450 -385,300 -850,434 -1335,408zm-6711 384c104,136 282,295 525,466 117,82 232,167 347,252 312,230 634,467 994,657 366,192 783,345 1225,507 0,0 11,4 11,4 76,28 152,55 266,98 272,101 538,219 811,319 143,52 287,100 430,137 181,46 399,29 631,10l0 0c235,-18 470,-35 704,-1 212,32 423,62 636,86 214,25 431,44 655,54 153,7 272,137 265,289 -6,148 -128,266 -277,266l-12 -1c-239,-10 -471,-31 -696,-57 -225,-26 -442,-57 -652,-88 -179,-26 -373,-11 -579,5l0 0c-271,22 -546,42 -813,-26 -319,-82 -623,-204 -927,-328 -131,-53 -254,-103 -369,-145 -315,-117 -631,-228 -942,-354 -217,-87 -425,-179 -625,-284 -198,-104 -383,-220 -560,-340 -177,-120 -343,-242 -505,-362 -112,-83 -223,-165 -337,-245 -298,-209 -607,-477 -761,-767 -124,-232 -150,-476 1,-714 48,-76 106,-162 175,-245 -215,141 -410,280 -550,433 -247,270 -353,653 -447,990l0 1 0 0 -28 101c128,409 392,806 779,1178 395,378 918,731 1558,1044 814,399 1763,709 2799,918 1036,210 2158,320 3317,320 1159,0 2282,-110 3318,-320 1035,-209 1985,-519 2799,-918 684,-335 1234,-714 1636,-1122 396,-401 648,-829 746,-1269 -125,-327 -322,-630 -558,-888 -136,-148 -360,-261 -597,-382 0,0 -1,0 -1,0 -180,-92 -359,-184 -528,-297 -111,-75 -266,-107 -397,-129 68,274 12,555 -98,811 -61,142 -224,206 -364,146 -140,-60 -206,-223 -146,-364 69,-159 120,-359 47,-525 -48,-112 -150,-199 -258,-252 -20,-8 -40,-16 -59,-25 -427,-200 -875,-343 -1322,-486 -267,-84 -481,-267 -688,-444 -167,-141 -376,-333 -595,-377 -207,-41 -447,-4 -702,35l0 -1c-1,1 -107,17 -117,18 56,62 106,128 147,201 88,159 2,357 -173,403 -122,32 -250,-23 -312,-134 -51,-92 -155,-186 -273,-271 -190,-138 -412,-248 -511,-289 -2,-1 -4,-3 -7,-4 -109,-47 -215,-101 -321,-155 -120,-62 -237,-122 -351,-166 -108,-43 -213,-71 -315,-71 -250,0 -497,-41 -743,-82 -139,-23 -274,-45 -403,-59 -127,-13 -249,-18 -364,-7 -226,22 -459,141 -705,267l-1 0 0 1 -94 47c-216,146 -484,357 -687,559 -155,155 -269,301 -287,400 -28,152 -172,251 -323,224 -150,-28 -250,-172 -223,-322 31,-170 133,-333 239,-467 -261,67 -519,142 -776,223 -119,38 -230,96 -340,165 -162,103 -313,224 -468,337l0 0c-157,127 -407,417 -366,636 31,170 -101,327 -273,327 -134,0 -249,-97 -272,-229 -19,-101 -18,-203 1,-305 -75,18 -151,33 -227,48 -118,24 -231,47 -331,75 -68,20 -132,43 -188,71 145,-20 282,77 310,221l0 1c30,149 -69,296 -218,325l0 0c-166,33 -311,240 -395,375 -36,56 -5,149 85,266zm3766 717c-150,-103 -249,-191 -385,-312l0 0c-128,-114 -258,-227 -391,-337 -119,-97 -136,-271 -39,-390 97,-118 272,-135 390,-38 187,153 310,262 408,350l0 0 1 1c127,112 214,190 342,277 130,89 305,189 607,348 213,113 461,224 731,329 270,106 561,205 859,292 392,115 866,107 1325,100l1 0 0 0c124,-2 248,-4 347,-4 313,0 608,-57 893,-112l1 0c113,-21 226,-43 340,-61 185,-30 372,-43 559,-54 129,-8 256,-16 370,-30 113,-15 217,-36 308,-72 257,-101 442,-306 622,-505 90,-100 181,-201 284,-290 205,-177 341,-329 429,-457 112,-162 146,-282 149,-367 4,-105 -43,-189 -116,-262l0 0c-54,-54 -81,-125 -81,-196 0,-153 124,-278 277,-278l0 1c71,0 142,27 196,81l0 0 0 0c182,182 288,414 278,674 -18,485 -422,924 -770,1224 -36,31 -74,69 -113,109 -38,40 -79,86 -122,133l0 0c-212,235 -453,501 -831,649 -263,104 -546,121 -846,140l-1 0c-166,10 -338,21 -505,47 -108,18 -215,38 -323,59 -147,29 -304,59 -472,82 -168,24 -344,40 -526,40 -422,0 -846,24 -1267,-16 -192,-18 -380,-50 -561,-103 -317,-92 -625,-197 -911,-309 -287,-112 -552,-232 -783,-353 -329,-174 -526,-288 -674,-390zm-5262 1691c0,2931 3834,5315 8546,5315 2361,0 4501,-600 6051,-1567 1540,-963 2494,-2288 2494,-3748l0 -670c-211,292 -480,571 -804,835 -384,313 -846,603 -1381,865 -853,418 -1844,742 -2922,961 -1077,219 -2241,334 -3439,334 -1197,0 -2361,-115 -3439,-334 -1077,-219 -2069,-543 -2921,-961 -535,-262 -997,-552 -1381,-865 -324,-264 -593,-543 -804,-835l0 670z"/>
 </g>
</svg>
