<svg id="Capa_1" enable-background="new 0 0 512 512" height="512" viewBox="0 0 512 512" width="512" xmlns="http://www.w3.org/2000/svg"><path d="m143.071 193.071 30-30c3.905-3.905 3.905-10.237 0-14.143-3.905-3.904-10.237-3.904-14.143 0l-30 30c-3.905 3.905-3.905 10.237 0 14.143 3.907 3.906 10.238 3.905 14.143 0z"/><path d="m233.929 193.071c3.906 3.905 10.236 3.905 14.143 0l30-30c3.905-3.905 3.905-10.237 0-14.143-3.906-3.904-10.236-3.904-14.143 0l-30 30c-3.905 3.906-3.905 10.238 0 14.143z"/><path d="m308.929 133.071c3.907 3.905 10.236 3.904 14.143 0 3.905-3.905 3.905-10.237 0-14.143l-30-30c-3.906-3.904-10.236-3.904-14.143 0-3.905 3.905-3.905 10.237 0 14.143z"/><path d="m218.929 133.071c3.906 3.905 10.237 3.905 14.143 0 3.905-3.905 3.905-10.237 0-14.143l-30-30c-3.905-3.904-10.237-3.904-14.143 0-3.905 3.905-3.905 10.237 0 14.143z"/><path d="m353.071 193.071 30-30c3.905-3.905 3.905-10.237 0-14.143-3.906-3.904-10.236-3.904-14.143 0l-30 30c-3.905 3.905-3.905 10.237 0 14.143 3.908 3.906 10.237 3.905 14.143 0z"/><path d="m512 256c0-18.677-12.869-34.401-30.204-38.782-5.027-116.475-107.854-171.218-225.796-171.218-117.96 0-220.763 54.765-225.796 171.203-17.018 4.269-30.204 19.759-30.204 38.797 0 11.938 5.264 22.665 13.585 30-8.321 7.335-13.585 18.062-13.585 30 0 18.695 12.893 34.43 30.253 38.794 4.699 83.375 75.924 111.206 159.747 111.206h21c5.523 0 10-4.477 10-10s-4.477-10-10-10h-21c-88.106 0-135.013-30.269-139.617-90h81.474l27.071 27.071c3.906 3.905 10.237 3.905 14.143 0l27.072-27.071h111.715l27.071 27.071c3.907 3.905 10.236 3.904 14.143 0l27.071-27.081h81.475c-4.605 59.741-51.511 90.01-139.618 90.01h-21c-5.522 0-10 4.477-10 10s4.478 10 10 10h21c83.848 0 155.049-27.847 159.747-111.207 17.36-4.363 30.253-20.098 30.253-38.793 0-11.933-5.259-22.654-13.573-29.99 8.782-7.755 13.573-18.552 13.573-30.01zm-256-190c96.718 0 199.865 39.653 205.728 150h-411.46c5.558-104.494 101.078-150 205.732-150zm-216 270c-11.028 0-20-8.972-20-20s8.972-20 20-20h31.857l40 40zm126 25.858-65.858-65.858h131.715zm54.143-25.858 35.857-35.857 35.857 35.857zm125.857 25.858-65.858-65.858h131.715zm146-45.858c0 11.028-8.972 20-20 20h-71.857l40-40h31.857c11.028 0 20 8.972 20 20zm-452-40c-11.028 0-20-8.972-20-20 0-11.045 8.954-20 20-20h432c11.028 0 20 8.972 20 20 0 11.045-8.954 20-20 20z"/><circle cx="256" cy="456" r="10"/></svg>