<svg id="Capa_1" enable-background="new 0 0 512.093 512.093" height="512" viewBox="0 0 512.093 512.093" width="512" xmlns="http://www.w3.org/2000/svg"><path id="XMLID_212_" d="m437.02 74.981c-48.353-48.352-112.64-74.981-181.02-74.981s-132.667 26.629-181.019 74.981-74.981 112.639-74.981 181.019 26.629 132.667 74.98 181.019c49.574 49.574 115.164 75.074 181.199 75.074 50.337 0 100.938-14.824 144.875-45.102 4.548-3.134 5.694-9.361 2.56-13.909-3.134-4.547-9.362-5.692-13.909-2.56-93.63 64.522-220.043 52.894-300.583-27.646-92.017-92.016-92.017-241.738 0-333.754 92.016-92.017 241.738-92.017 333.754 0 80.541 80.54 92.167 206.954 27.646 300.583-3.134 4.548-1.988 10.775 2.56 13.909s10.774 1.988 13.909-2.56c69.997-101.575 57.392-238.709-29.971-326.073z"/><path id="XMLID_213_" d="m308.184 372.945c1.953 1.953 4.512 2.929 7.071 2.929s5.119-.976 7.071-2.929c3.905-3.905 3.905-10.237 0-14.143l-42.985-42.985c-3.905-3.905-10.237-3.905-14.143 0s-3.905 10.237 0 14.143z"/><path id="XMLID_214_" d="m358.325 202.917c1.953 1.953 4.512 2.929 7.071 2.929s5.119-.976 7.071-2.929c3.905-3.905 3.905-10.237 0-14.143l-43.44-43.44c-3.905-3.905-10.237-3.905-14.143 0-3.905 3.905-3.905 10.237 0 14.143z"/><path id="XMLID_215_" d="m335.393 329.965c1.953 1.953 4.512 2.929 7.071 2.929s5.119-.976 7.071-2.929c3.905-3.905 3.905-10.237 0-14.143l-65.812-65.812c-3.905-3.905-10.237-3.905-14.143 0-3.905 3.905-3.905 10.237 0 14.143z"/><path id="XMLID_216_" d="m356.157 280.483c1.953 1.953 4.512 2.929 7.071 2.929s5.119-.977 7.071-2.929c3.905-3.905 3.905-10.237 0-14.143l-79.115-79.115c-3.905-3.905-10.236-3.904-14.143 0-3.905 3.905-3.905 10.237 0 14.143z"/><path id="XMLID_219_" d="m90.075 333.056c.79 21.119 14.536 39.669 34.075 46.846 5.165 23.621 25.469 41.632 50.195 43.323 10.828 18.485 30.795 30.122 52.508 30.122 23.14 0 44.157-13.105 54.424-33.642 11.795 4.002 24.427 6.173 37.556 6.173 64.606-.001 117.167-52.562 117.167-117.168v-93.082c0-64.606-52.561-117.167-117.167-117.167-14.314 0-28.034 2.585-40.725 7.304-.159-.262-.328-.521-.514-.772-12.662-17.074-30.983-29.593-51.59-35.25-20.926-5.744-43.439-4.147-63.388 4.5-23.469 10.173-41.571 28.877-50.973 52.666-8.242 20.856-8.931 43.432-2.121 64.496-24.044 6.75-41.308 29.314-40.334 55.344.839 22.428 14.983 41.276 34.542 49.221-9.022 9.842-14.18 23.056-13.655 37.086zm52.791 35.029c0-19.456 15.829-35.285 35.285-35.285s35.285 15.829 35.285 35.285-15.829 35.285-35.285 35.285-35.285-15.828-35.285-35.285zm-11.271-164.005c1.037-1.947 1.404-4.185 1.031-6.375 3.923-15.087 17.66-26.259 33.958-26.259 19.345 0 35.083 15.738 35.083 35.083s-15.738 35.083-35.083 35.083-35.083-15.738-35.083-35.083c-.001-.824.038-1.639.094-2.449zm95.258 229.266c-11.591 0-22.425-4.959-30.039-13.226 15.853-5.703 28.359-18.457 33.741-34.459 9.134 10.465 20.092 19.299 32.377 25.997-7.051 13.271-20.884 21.688-36.079 21.688zm91.98-314.884c53.578 0 97.167 43.589 97.167 97.167v93.082c0 53.578-43.589 97.167-97.167 97.167s-97.167-43.589-97.167-97.167v-93.082c.001-53.578 43.589-97.167 97.167-97.167zm-188.59 15.799c7.438-18.821 21.76-33.618 40.327-41.667 31.567-13.683 67.764-4.634 89.113 21.931-22.427 13.172-40.111 33.584-49.805 58.009-10.094-12.828-25.743-21.09-43.294-21.09-16.404 0-31.147 7.216-41.247 18.632-1.286-12.02.336-24.251 4.906-35.815zm-41.069 111.741c-.578-15.449 8.909-28.977 22.579-34.27 2.631 27.941 26.213 49.88 54.831 49.88 13.319 0 25.548-4.753 35.083-12.651v59.749c0 3.209.135 6.387.39 9.532-7.239-3.486-15.348-5.441-23.906-5.441-26.832 0-49.252 19.218-54.241 44.61-8.122-5.625-13.466-14.866-13.849-25.103-.542-14.467 8.737-27.527 22.564-31.759 4.429-1.355 7.347-5.574 7.054-10.196-.02-.31-.033-.622-.045-.934-.097-2.685-1.271-5.218-3.257-7.027-1.986-1.81-4.625-2.74-7.298-2.594l-3.37.19c-19.418.681-35.808-14.549-36.535-33.986z"/><path id="XMLID_1522_" d="m181.951 381.887c2.559 0 5.118-.977 7.071-2.929 2.939-2.939 3.665-7.253 2.179-10.872 1.485-3.619.76-7.933-2.179-10.872s-7.252-3.664-10.872-2.179c-3.619-1.485-7.932-.76-10.872 2.179-2.939 2.939-3.665 7.253-2.179 10.872-1.485 3.619-.76 7.933 2.179 10.872 1.953 1.953 4.512 2.929 7.071 2.929 1.293 0 2.585-.251 3.801-.75 1.215.499 2.508.75 3.801.75z"/><path id="XMLID_1531_" d="m155.711 217.4c1.953 1.953 4.512 2.929 7.071 2.929 1.293 0 2.586-.251 3.801-.75 1.215.499 2.508.75 3.801.75 2.559 0 5.119-.977 7.071-2.929 2.939-2.939 3.664-7.252 2.179-10.872 1.485-3.619.76-7.932-2.179-10.872-2.939-2.939-7.252-3.664-10.872-2.179-3.62-1.486-7.933-.761-10.873 2.179-2.939 2.939-3.664 7.252-2.179 10.872-1.484 3.62-.759 7.933 2.18 10.872z"/><path id="XMLID_1541_" d="m429.95 419.95c-2.63 0-5.21 1.07-7.07 2.93s-2.93 4.44-2.93 7.07 1.07 5.21 2.93 7.07 4.44 2.93 7.07 2.93 5.21-1.07 7.07-2.93 2.93-4.44 2.93-7.07-1.07-5.21-2.93-7.07-4.44-2.93-7.07-2.93z"/></svg>