<svg height="512pt" viewBox="0 0 512.0008 512" width="512pt" xmlns="http://www.w3.org/2000/svg"><path d="m495.871094 200.632812c-3.703125-3.925781-7.199219-7.632812-8.675782-11.273437-3.707031-9.132813-3.710937-13.097656-3.382812-14.648437.285156-1.347657 1.199219-2.347657 3.742188-4.867188 1.164062-1.152344 2.480468-2.460938 3.8125-4.003906 9.414062-10.925782 9.65625-25.8125.601562-37.054688-9.550781-11.847656-25.546875-15.066406-38.894531-7.820312-6.046875 3.28125-9.820313 3.773437-11.339844 3.132812-.921875-.386718-2.742187-2.003906-4.589844-8.484375-5.601562-19.628906-14.839843-31.394531-27.460937-34.976562-9.34375-2.652344-18-.140625-24.507813 3.222656-2.320312-3.0625-5.335937-6.070313-9.1875-8.941406-6.480469-4.828125-11.136719-14.496094-7.703125-22.320313 5.515625-12.570312 2.84375-25.433594-6.972656-33.574218-10.769531-8.933594-27.015625-9.652344-38.636719-1.714844-7.910156 5.40625-10.828125 5.4375-11.714843 5.195312-1.203126-.320312-3.332032-2.417968-5.707032-7.347656-4.582031-9.507812-13.863281-15.15625-24.867187-15.15625-.109375 0-.21875 0-.328125 0-13.445313.140625-25.855469 8.367188-31.613282 20.960938-3.796874 8.3125-3.503906 18.320312-3.21875 28.003906.125 4.226562.265626 9.128906-.117187 12.84375-6.617187 1.269531-12.578125 4.550781-17.152344 9.542968l-14.464843 15.789063c-3.730469 4.074219-3.457032 10.398437.617187 14.128906 4.070313 3.730469 10.394531 3.453125 14.125-.621093l14.46875-15.789063c2.089844-2.28125 5.054687-3.578125 8.347656-3.644531 3.671875-.105469 7.269531 1.359375 9.851563 3.949218 24.195312 24.265626 33.089844 67.554688 25.304687 122.375-8.980469 1.691407-18.195312 3.761719-27.652343 6.246094-72.015626 18.917969-145.847657 58.128906-197.503907 104.886719-15.667969 14.183594-7.835937 34.640625-5.257812 41.359375 2.820312 7.363281 6.949219 15.359375 11.917969 24.019531-20.84375-13.519531-45.222657-32.03125-47.535157-47.691406-.46875-3.183594-.410156-8.152344 5.496094-14.601563l148.527344-162.125c3.730469-4.070312 3.453125-10.394531-.617188-14.125-4.070312-3.730468-10.394531-3.457031-14.128906.617188l-148.527344 162.121094c-8.636719 9.425781-12.179687 19.867187-10.53125 31.027344 4.046875 27.445312 40.117188 52.324218 78.488281 75.117187 3.53125 2.097656 7.320313 4.394531 11.484376 6.945313 2.292968 3.757812 4.601562 7.585937 6.921874 11.515624 22.746094 38.5 47.566407 74.683594 74.972657 78.722657 1.761719.261719 3.503906.390625 5.230469.390625 9.179687 0 17.8125-3.675782 25.726562-10.96875l236.238281-217.636719c2.023438-1.863281 3.761719-3.957031 5.199219-6.226563 3.289062.632813 6.800781.960938 10.453125.960938 8.714844 0 18.15625-1.796875 26.894531-5.355469 14.117188-5.75 23.917969-15.046875 27.59375-26.175781 7.671875-23.253906-4.695312-36.359375-13.726562-45.929688zm-229.234375-171.359374c2.898437-6.34375 8.929687-9.230469 13.625-9.277344h.132812c3.3125 0 5.617188 1.292968 6.84375 3.84375 4.851563 10.058594 10.921875 15.941406 18.558594 17.980468 10.480469 2.800782 20.554687-2.804687 28.160156-8.003906 4.761719-3.25 11.15625-2.25 14.589844.597656 2.898437 2.40625 3.367187 5.722657 1.425781 10.144532-7.796875 17.769531 1.175782 36.792968 14.070313 46.394531 7.328125 5.460937 9.351562 10.851563 6.015625 16.023437-3.234375 5.007813-10.519532 8.417969-17.035156 7.121094-4.789063-19.058594-15.199219-27.214844-23.464844-30.695312-11.859375-4.996094-26.816406-3.480469-41.425782 3.878906-3.839843-5.921875-8.191406-11.347656-13.070312-16.242188-2.925781-2.933593-6.363281-5.265624-10.101562-6.925781.566406-5.0625.414062-10.449219.257812-15.738281-.207031-7.046875-.441406-15.03125 1.417969-19.101562zm30.804687 75.722656c9.125-4.492188 18.160156-5.773438 24.355469-3.164063 6.460937 2.722657 10.742187 9.902344 12.722656 21.347657.941407 5.457031-3.453125 10.773437-6.15625 13.453124-5.773437 5.730469-13.886719 9.855469-20.425781 11.480469-1.652344-15.949219-5.152344-30.375-10.496094-43.117187zm11.582032 63.238281c8.828124-1.476563 18.4375-5.617187 26.554687-11.566406 14.683594 4.523437 31.417969 12.78125 30.808594 46.929687-17.992188-2.242187-37.957031-2.011718-59.566407.695313 1.566407-12.640625 2.296876-24.671875 2.203126-36.058594zm119.539062 58.339844c-11.890625-8.777344-26.089844-15.207031-42.292969-19.277344.515625-11.679687-.558593-21.871094-3.238281-30.695313 12.460938-2.355468 26.90625 1.898438 36.53125 11.484376 6.210938 6.183593 14.515625 18.71875 9 38.488281zm-238.894531 259.714843c-6.40625 5.902344-11.339844 5.964844-14.492188 5.503907-21.734375-3.207031-49.015625-49.390625-60.667969-69.109375-5.074218-8.597656-10.0625-16.667969-14.886718-24.476563-18.597656-30.105469-34.660156-56.105469-25.148438-64.714843 48.652344-44.035157 121.136719-82.496094 189.164063-100.371094 27.8125-7.304688 53.597656-10.914063 76.527343-10.914063 37.195313 0 66.875 9.5 85.4375 28.117188 2.589844 2.597656 4.03125 6.210937 3.953126 9.917969-.070313 3.320312-1.367188 6.304687-3.648438 8.40625zm300.933593-245.996093c-1.78125 5.394531-7.667968 10.46875-16.148437 13.925781-9.152344 3.730469-18.453125 4.503906-24.984375 3.488281-.378906-5.625-2.175781-11.074219-5.164062-15.800781 10.667968-25.496094 6.875-50.558594-10.628907-67.992188-15.835937-15.769531-39.785156-21.675781-59.925781-15.605468-.667969-.863282-1.355469-1.707032-2.074219-2.523438-6.261719-7.125-13.707031-11.691406-21.480469-14.984375 1.207032-2.144531 2.179688-4.328125 2.898438-6.539062.871094.066406 1.746094.113281 2.617188.113281 12.71875 0 24.9375-6.933594 31.148437-16.554688 2.621094-4.058593 4.449219-9.085937 4.703125-14.539062 3.652344-2.433594 8.539062-4.585938 12.660156-3.410156 5.355469 1.519531 10.21875 9.058594 13.6875 21.226562 1.179688 4.125 4.757813 16.683594 16.074219 21.4375 7.957031 3.339844 17.585937 2 28.628906-3.996094 5.917969-3.214843 11.125-.5 13.78125 2.796876 1.40625 1.746093 4.210938 6.359374-.175781 11.445312-.816406.949219-1.753906 1.875-2.742188 2.855469-8.402343 8.332031-14.570312 17.183593-4.816406 41.238281 2.890625 7.117188 8.082032 12.625 12.667969 17.480469 8.683594 9.207031 13.039063 14.539062 9.273437 25.9375zm0 0"/><path d="m171.511719 449.210938-.007813.003906c-4.242187 3.539062-4.8125 9.839844-1.277344 14.082031 1.976563 2.375 4.820313 3.597656 7.6875 3.597656 2.257813 0 4.53125-.761719 6.398438-2.316406 4.242188-3.539063 4.816406-9.84375 1.28125-14.085937-3.535156-4.242188-9.839844-4.816407-14.082031-1.28125zm0 0"/><path d="m244.671875 381.792969-44.121094 40.648437c-4.0625 3.742188-4.320312 10.066406-.578125 14.128906 1.972656 2.140626 4.660156 3.226563 7.355469 3.226563 2.421875 0 4.851563-.875 6.769531-2.648437l44.125-40.644532c4.0625-3.742187 4.320313-10.070312.578125-14.128906-3.742187-4.066406-10.066406-4.324219-14.128906-.582031zm0 0"/><path d="m187.441406 131.070312c1.871094 1.554688 4.140625 2.316407 6.394532 2.316407 2.863281 0 5.710937-1.226563 7.6875-3.601563l.007812-.003906c3.53125-4.242188 2.957031-10.542969-1.285156-14.082031-4.242188-3.53125-10.550782-2.957031-14.085938 1.285156s-2.960937 10.546875 1.28125 14.085937zm0 0"/></svg>