<svg height="512pt" viewBox="-43 0 512 512.00113" width="512pt" xmlns="http://www.w3.org/2000/svg"><path d="m424.816406 443.210938-8.71875-25.667969c-9.625-28.347657-33.8125-49.78125-63.109375-55.929688-11.351562-2.382812-20.398437-10.78125-23.617187-21.921875l-10.609375-36.75c2.648437-4.574218 4.515625-9.695312 5.390625-15.214844.863281-5.453124-2.859375-10.578124-8.3125-11.441406-5.457032-.863281-10.578125 2.859375-11.445313 8.3125-1.84375 11.632813-11.75 20.078125-23.554687 20.078125h-135.417969c-13.152344 0-23.851563-10.699219-23.851563-23.851562v-39.070313c0-81.878906 33.257813-160.78125 91.558594-217.960937 47.496094 46.585937 78.765625 108 88.375 173.949219.792969 5.464843 5.867188 9.25 11.335938 8.453124 5.464844-.796874 9.25-5.871093 8.453125-11.339843-.546875-3.757813-1.179688-7.5-1.859375-11.230469 28.429687-13.808594 46.726562-42.929688 46.726562-74.609375 0-1.957031-.574218-3.875-1.652344-5.511719-20.378906-30.859375-48.792968-55.59375-82.164062-71.535156l-64.761719-30.929688c-.019531-.007812-.039062-.019531-.058593-.027343l-.082032-.039063c-.003906 0-.003906 0-.007812 0-2.71875-1.296875-5.894532-1.296875-8.609375 0-.003907 0-.003907 0-.003907 0l-.082031.039063c-.019531.011719-.042969.019531-.0625.03125l-64.757812 30.929687c-33.375 15.9375-61.785157 40.675782-82.164063 71.535156-1.078125 1.636719-1.65625 3.550782-1.65625 5.511719 0 31.6875 18.308594 60.8125 46.75 74.617188-3.480468 19.0625-5.277344 38.507812-5.277344 58.117187v39.070313c0 8.027343 2.175782 15.550781 5.957032 22.027343l-10.640625 36.84375c-3.214844 11.140626-12.261719 19.539063-23.613281 21.921876-29.300782 6.148437-53.484376 27.582031-63.109376 55.929687l-8.71875 25.667969c-2.3125 6.8125-1.835937 14.113281 1.34375 20.566406 3.179688 6.449219 8.683594 11.277344 15.492188 13.589844 2.804688.953125 5.71875 1.433594 8.660156 1.433594 11.539063 0 21.785156-7.34375 25.496094-18.269532l8.71875-25.671875c3.535156-10.410156 12.417969-18.28125 23.179688-20.539062 30.898437-6.488281 55.535156-29.355469 64.292968-59.6875l8.652344-29.957031h11.992188l-.054688 27.953124c-.015625 10.128907-3.933594 19.691407-11.027344 26.917969-20.910156 21.316407-30.257812 51.585938-25 80.972657l5.238282 29.285156c1.894531 10.589844 9.882812 19.019531 20.355468 21.480468 2.023438.472657 4.070313.710938 6.125.710938 1.585938 0 3.179688-.140625 4.765625-.425781 14.617188-2.613281 24.378907-16.628907 21.765625-31.246094l-5.234375-29.285156c-2.195312-12.257813 1.703125-24.886719 10.425781-33.777344 6.738282-6.867187 12.261719-14.625 16.5-22.984375 4.242188 8.359375 9.761719 16.117188 16.5 22.984375 8.722657 8.890625 12.621094 21.519531 10.429688 33.777344l-5.238281 29.285156c-2.613281 14.613281 7.148437 28.632813 21.765625 31.246094 1.585937.285156 3.179687.425781 4.765625.425781 2.054687 0 4.101562-.238281 6.125-.710938 10.472656-2.460937 18.460937-10.890624 20.355469-21.480468l5.238281-29.285156c5.257812-29.386719-4.089844-59.65625-25-80.972657-7.09375-7.226562-11.011719-16.789062-11.027344-26.917969l-.050781-27.953124h11.988281l8.652344 29.957031c8.757812 30.328125 33.394531 53.199219 64.292969 59.6875 10.761718 2.257812 19.644531 10.128906 23.179687 20.539062l8.71875 25.667969c3.710937 10.929688 13.957031 18.273438 25.496094 18.273438 2.945312 0 5.859375-.480469 8.660156-1.433594 6.8125-2.3125 12.3125-7.140625 15.492187-13.589844 3.179688-6.453125 3.652344-13.757812 1.339844-20.570312zm-151.09375-393.199219c29.167969 13.933593 54.128906 35.308593 72.371094 61.945312-1.003906 21.242188-12.808594 40.632813-31.035156 51.34375-11.066406-44.371093-31.429688-86.019531-59.53125-121.980469zm-193.554687 61.945312c18.242187-26.636719 43.203125-48.011719 72.367187-61.945312l18.203125-8.691407c-28.1875 36.074219-48.445312 77.734376-59.488281 122.007813-18.253906-10.707031-30.078125-30.109375-31.082031-51.371094zm.058593 282.789063c-17.644531 3.703125-32.210937 16.609375-38.007812 33.683594l-8.71875 25.667968c-.957031 2.8125-3.589844 4.703125-6.558594 4.703125-.75 0-1.5-.125-2.226562-.371093-3.617188-1.230469-5.558594-5.171876-4.332032-8.785157l8.71875-25.671875c7.367188-21.6875 25.867188-38.082031 48.28125-42.789062 18.609376-3.902344 33.445313-17.679688 38.722657-35.945313l7.605469-26.339843c3.988281 2.28125 8.363281 3.964843 13.003906 4.902343l-7.300782 25.28125c-6.703124 23.203125-25.546874 40.703125-49.1875 45.664063zm102.128907 8.511718c-13.25 13.5-19.171875 32.683594-15.839844 51.300782l5.234375 29.285156c.671875 3.761719-1.839844 7.367188-5.597656 8.039062-.941406.167969-1.882813.144532-2.796875-.070312-2.695313-.632812-4.753907-2.800781-5.242188-5.527344l-5.234375-29.285156c-4.121094-23.03125 3.203125-46.746094 19.585938-63.445312 10.777344-10.980469 16.726562-25.503907 16.753906-40.890626l.050781-27.992187h13.847657l-.042969 28.019531c-.039063 19.027344-7.394531 36.984375-20.71875 50.566406zm54.6875-50.59375c.027343 15.386719 5.976562 29.90625 16.753906 40.890626 16.382813 16.699218 23.707031 40.417968 19.585937 63.445312l-5.234374 29.28125c-.488282 2.726562-2.546876 4.898438-5.246094 5.53125-.914063.214844-1.851563.238281-2.792969.070312-3.761719-.671874-6.269531-4.277343-5.597656-8.039062l5.234375-29.285156c3.332031-18.621094-2.589844-37.800782-15.839844-51.304688-13.324219-13.582031-20.679688-31.539062-20.714844-50.5625l-.046875-28.019531h13.847657zm164.503906 105.765626c-.726563.246093-1.476563.375-2.226563.375-2.96875 0-5.601562-1.890626-6.558593-4.707032l-8.71875-25.667968c-5.796875-17.074219-20.363281-29.980469-38.007813-33.683594-23.640625-4.960938-42.484375-22.457032-49.1875-45.664063l-7.296875-25.269531c4.640625-.925781 9.027344-2.574219 13.023438-4.839844l7.582031 26.265625c5.277344 18.269531 20.113281 32.042969 38.722656 35.949219 22.414063 4.703125 40.917969 21.101562 48.28125 42.789062l8.71875 25.667969c1.226563 3.617188-.714844 7.554688-4.332031 8.785157zm0 0"/><path d="m314.691406 251.164062c-2.628906 0-5.210937-1.070312-7.070312-2.929687-1.859375-1.863281-2.929688-4.441406-2.929688-7.070313 0-2.632812 1.070313-5.210937 2.929688-7.070312s4.441406-2.929688 7.070312-2.929688 5.210938 1.070313 7.070313 2.929688 2.929687 4.4375 2.929687 7.070312c0 2.628907-1.070312 5.207032-2.929687 7.070313-1.859375 1.859375-4.441407 2.929687-7.070313 2.929687zm0 0"/></svg>