<svg id="Capa_1" enable-background="new 0 0 512.002 512.002" height="512" viewBox="0 0 512.002 512.002" width="512" xmlns="http://www.w3.org/2000/svg"><path id="XMLID_237_" d="m481.45 44.695 27.624-27.624c3.905-3.905 3.905-10.237 0-14.143-3.905-3.905-10.237-3.905-14.143 0l-27.624 27.624-15.322-15.322c-9.816-9.817-22.868-15.223-36.751-15.223s-26.935 5.406-36.751 15.223l-44.773 44.773c-8.315 8.315-13.45 18.954-14.832 30.449-3.879-3.558-8.862-5.528-14.158-5.528-5.606 0-10.876 2.183-14.841 6.147l-12.745 12.745c-3.964 3.964-6.147 9.235-6.147 14.841 0 5.308 1.978 10.301 5.551 14.184-11.146 1.345-21.937 6.27-30.473 14.806l-44.773 44.773c-8.535 8.536-13.461 19.327-14.806 30.473-3.883-3.573-8.875-5.551-14.184-5.551-5.606 0-10.876 2.183-14.841 6.147l-12.745 12.745c-3.964 3.964-6.147 9.235-6.147 14.841 0 5.308 1.978 10.302 5.552 14.184-11.146 1.345-21.937 6.27-30.473 14.805l-44.773 44.773c-20.264 20.265-20.264 53.237 0 73.502l15.322 15.322-12.202 12.202-7.071-7.071c-3.905-3.905-10.237-3.905-14.143 0l-47.852 47.855c-3.905 3.905-3.905 10.237 0 14.143 3.905 3.905 10.237 3.905 14.143 0l40.781-40.782 7.066 7.066c.002.002.003.003.005.005s.003.003.005.005l7.066 7.066-40.782 40.781c-3.905 3.905-3.905 10.237 0 14.143 1.953 1.953 4.512 2.929 7.071 2.929s5.119-.976 7.071-2.929l47.853-47.853c3.905-3.905 3.905-10.237 0-14.143l-7.071-7.071 12.202-12.202 15.322 15.322c10.132 10.132 23.441 15.198 36.751 15.198s26.619-5.066 36.751-15.198l44.773-44.773c8.531-8.532 13.456-19.317 14.804-30.458 3.907 3.679 8.975 5.715 14.365 5.715 5.606 0 10.876-2.183 14.841-6.147l12.745-12.745c3.964-3.964 6.147-9.235 6.147-14.841 0-5.37-2.022-10.42-5.675-14.321 5.767-.709 11.481-2.387 16.897-5.093 4.941-2.469 6.945-8.475 4.477-13.415-2.469-4.941-8.477-6.946-13.415-4.477-12.322 6.157-27.151 3.743-36.9-6.006l-44.787-44.787c-12.467-12.466-12.467-32.751 0-45.218l44.773-44.773c12.465-12.466 32.751-12.467 45.217 0l44.787 44.787c9.75 9.749 12.163 24.578 6.006 36.899-2.469 4.94-.465 10.947 4.476 13.415 4.939 2.467 10.946.465 13.415-4.476 2.706-5.415 4.385-11.129 5.095-16.896 3.901 3.653 8.95 5.674 14.32 5.674 5.606 0 10.876-2.183 14.841-6.147l12.745-12.746c3.964-3.964 6.147-9.235 6.147-14.841 0-5.379-2.028-10.436-5.692-14.339 11.49-1.384 22.123-6.519 30.434-14.83l44.772-44.773c9.817-9.816 15.223-22.868 15.223-36.751s-5.406-26.935-15.223-36.751zm-263.655 339.517-44.772 44.773c-12.467 12.467-32.752 12.467-45.219 0l-22.386-22.386c-.002-.002-.004-.005-.007-.008s-.005-.004-.008-.007l-22.386-22.386c-12.466-12.467-12.466-32.752 0-45.218l44.772-44.773c12.467-12.467 32.752-12.467 45.218 0l44.796 44.796c12.458 12.468 12.455 32.746-.008 45.209zm28.284-73.502 28.471 28.471c.385.385.385 1.012 0 1.396l-12.745 12.745c-.385.386-1.012.386-1.396 0l-101.55-101.549c-.385-.385-.385-1.012 0-1.396l12.745-12.745c.192-.193.445-.289.698-.289s.506.096.698.289l28.292 28.292zm160.888-102.551c0 .001 0 .001 0 0l-12.745 12.746c-.385.386-1.012.386-1.396 0l-28.471-28.471-44.787-44.787-28.291-28.291c-.385-.385-.385-1.012 0-1.397l12.745-12.745c.192-.193.445-.289.698-.289s.506.096.698.289l28.292 28.292 44.787 44.787 28.471 28.471c.384.384.384 1.011-.001 1.395zm75.662-88.782-44.773 44.773c-6.039 6.039-14.068 9.365-22.608 9.365-8.536 0-16.561-3.322-22.599-9.355l-44.807-44.807c-6.033-6.038-9.355-14.062-9.355-22.599 0-8.54 3.326-16.569 9.365-22.608l44.773-44.773c6.039-6.039 14.068-9.365 22.608-9.365 8.541 0 16.57 3.326 22.609 9.365l22.391 22.391c.001.001.002.002.002.003s.002.002.002.002l22.391 22.391c6.039 6.039 9.365 14.068 9.365 22.609.002 8.539-3.324 16.569-9.364 22.608z"/><path id="XMLID_257_" d="m252.695 205.307v48c0 5.523 4.477 10 10 10s10-4.477 10-10v-48c0-5.523-4.477-10-10-10s-10 4.477-10 10z"/><path id="XMLID_258_" d="m302.695 195.307c-5.523 0-10 4.477-10 10v48c0 5.523 4.477 10 10 10s10-4.477 10-10v-48c0-5.523-4.477-10-10-10z"/><path id="XMLID_259_" d="m395.241 62.761c-5.523 0-10 4.477-10 10v48c0 5.523 4.477 10 10 10s10-4.477 10-10v-48c0-5.523-4.477-10-10-10z"/><path id="XMLID_1496_" d="m435.241 62.761c-5.523 0-10 4.477-10 10v48c0 5.523 4.477 10 10 10s10-4.477 10-10v-48c0-5.523-4.477-10-10-10z"/><path id="XMLID_1499_" d="m130.406 327.596c-5.523 0-10 4.477-10 10v48c0 5.523 4.477 10 10 10s10-4.477 10-10v-48c0-5.523-4.477-10-10-10z"/><path id="XMLID_1501_" d="m170.406 327.596c-5.523 0-10 4.477-10 10v48c0 5.523 4.477 10 10 10s10-4.477 10-10v-48c0-5.523-4.477-10-10-10z"/><path id="XMLID_1502_" d="m334.888 271.244c-2.63 0-5.21 1.07-7.07 2.93s-2.93 4.44-2.93 7.07 1.07 5.21 2.93 7.07 4.44 2.93 7.07 2.93c2.64 0 5.21-1.07 7.07-2.93s2.93-4.44 2.93-7.07-1.07-5.21-2.93-7.07-4.43-2.93-7.07-2.93z"/></svg>