<?xml version="1.0" encoding="UTF-8"?>
<!DOCTYPE svg PUBLIC "-//W3C//DTD SVG 1.1//EN" "http://www.w3.org/Graphics/SVG/1.1/DTD/svg11.dtd">
<!-- Creator: CorelDRAW X8 -->
<svg xmlns="http://www.w3.org/2000/svg" xml:space="preserve" width="297.531mm" height="97.15mm" version="1.1" style="shape-rendering:geometricPrecision; text-rendering:geometricPrecision; image-rendering:optimizeQuality; fill-rule:evenodd; clip-rule:evenodd"
viewBox="0 0 29753 9715"
 xmlns:xlink="http://www.w3.org/1999/xlink">
 <defs>
  <style type="text/css">
   <![CDATA[
    .str0 {stroke:#D9251C;stroke-width:19.9998}
    .fil0 {fill:#FEFEFE}
    .fil1 {fill:#D9251C}
   ]]>
  </style>
 </defs>
 <g id="Layer_x0020_1">
  <metadata id="CorelCorpID_0Corel-Layer"/>
  <path class="fil0 str0" d="M502 3270c-262,277 -588,524 -466,1167 77,399 447,768 828,846 -112,373 -712,740 -707,1657 4,714 393,1221 900,1474 625,311 1331,236 1820,-148 484,-381 586,-883 953,-1414l1470 2030c565,1163 1726,938 2172,279 446,-658 115,-1381 -329,-1674 103,-202 366,-289 598,-288 119,1068 1544,1000 1594,-44 494,-33 752,-103 988,-425 362,-492 106,-888 46,-1125l259 -198 12 1866 2192 -186c25,-139 -11,-242 43,-338 256,-2 270,492 982,534 556,34 765,-244 1011,-494 84,54 137,138 231,205 418,298 686,196 1203,182 -72,1095 1044,1231 1442,615 177,-275 114,-414 76,-714 258,-40 391,-17 598,-128 357,-190 181,-292 471,-226l7 521 622 -26c89,244 86,655 626,867 467,184 879,-42 1085,-289 535,-640 -83,-1284 -96,-1335 5,-159 -55,-791 8,-1084 23,-105 82,-196 151,-212 51,-12 107,16 158,109 41,74 34,278 78,417 33,103 159,358 159,396 1,147 -336,397 -121,889 268,616 1012,674 1432,164 371,0 754,197 1486,-9 676,-191 894,-556 1044,-619 148,321 205,440 492,600 329,184 606,100 995,99 27,38 2,-13 38,69 67,152 63,246 245,421 399,380 1050,226 1258,-264 23,-53 29,-84 43,-144 4,-20 12,-62 16,-78l14 -52c3,-8 7,-19 9,-26 2,-6 5,-17 9,-25 269,-71 392,-9 642,-174 697,-458 518,-1332 -41,-1626 71,-498 -54,-847 -447,-984 242,-194 474,-302 536,-725 62,-424 -170,-726 -376,-887 -546,-429 -1588,-35 -2287,-112 105,-180 420,-305 506,-939 162,-1180 -947,-1890 -1936,-1525 -232,86 -316,194 -475,281 -130,-118 -207,-246 -419,-310 -281,-86 -366,-11 -592,64 -149,49 -297,-109 -567,-96 -309,15 -364,145 -541,215 -186,-138 -403,-273 -733,-197 -312,72 -399,212 -564,422 -24,-19 -21,-15 -50,-45l-134 -151c-225,-211 -567,-299 -883,-209 -438,124 -572,415 -706,852 -152,-186 -153,-633 -660,-828 -196,-76 -425,-78 -619,-17 -277,87 -296,213 -460,314 -528,-360 -728,-360 -1488,-339 -287,9 -305,90 -505,145 -589,-346 -773,-49 -949,-46 -67,1 -197,-87 -325,-108 -446,-72 -442,161 -679,78 -272,-96 -1222,-136 -1532,63 -156,100 -303,277 -350,503 -76,366 -32,1299 41,1634 -386,-13 -563,-39 -905,125 -228,109 -447,302 -550,495 -320,-151 -426,-419 -1310,-492 -330,-28 -1472,-20 -1751,56 -1235,338 -714,1758 -771,2743 -128,-101 -742,-936 -907,-1136 307,-757 2016,-1918 1071,-3388 -299,-465 -952,-883 -1798,-648 -350,97 -574,275 -772,489 -167,182 -386,660 -502,755 -117,-182 -139,-399 -412,-687 -640,-676 -1583,-886 -2430,-408 -904,512 -1275,1690 -737,2658 69,126 188,239 222,343z"/>
  <path class="fil1" d="M7107 8648c-247,896 -1546,472 -1299,-358 255,-854 1527,-467 1299,358zm9889 -7402c2,-64 -2,-147 -9,-173l-1 -1c-54,-93 -198,-64 -381,-53l0 376c208,-3 283,25 380,-71 8,-3 11,-36 11,-78zm1572 -75l35 36c57,84 143,416 161,517l-354 2 158 -555zm1953 -3l154 379c40,133 89,261 111,397l-493 -2 228 -774zm5578 489c-147,509 -843,256 -638,-418 140,-460 836,-266 638,418zm-17319 2099c288,-67 568,108 627,354 73,299 -146,562 -364,614 -713,170 -952,-807 -263,-968zm14834 303c450,-96 850,214 942,597 111,459 -234,854 -592,941 -1064,259 -1439,-1306 -350,-1538zm-6299 3409c-89,76 -129,184 -315,126 -92,-28 -194,-144 -157,-291 54,-215 481,-323 472,165zm2772 -180c-109,-578 708,-677 803,-173 106,559 -711,660 -803,173zm-11787 -32c-102,-373 419,-442 480,-145 69,338 -405,420 -480,145zm19648 102c-465,26 -428,-364 -209,-455 137,-58 266,16 307,117 78,193 -27,240 -98,338zm-5766 -923c356,-223 577,330 277,473 -323,154 -590,-277 -277,-473zm-12828 -714c596,-204 853,669 312,855 -595,205 -873,-662 -312,-855zm9587 4c329,-166 515,304 270,435 -337,180 -570,-283 -270,-435zm-6240 -142c389,-159 592,458 226,592 -396,145 -673,-410 -226,-592zm15769 -740c256,-103 384,302 145,378 -274,86 -400,-276 -145,-378zm-5008 -1845c2618,-340 2785,3391 611,3659 -1196,147 -1989,-507 -2111,-1523 -140,-1169 470,-2002 1500,-2136zm-5868 1852c198,-168 436,-119 365,216l-60 62c-251,60 -334,-37 -305,-278zm8404 -421c396,-145 501,428 186,515 -365,100 -507,-397 -186,-515zm-5109 321c-46,-213 19,-278 220,-277 262,234 6,456 -220,277zm-5680 -385c340,-198 567,322 280,475 -346,183 -591,-293 -280,-475zm-7840 2301c-43,-932 -56,-1862 -102,-2795 -27,-541 94,-788 610,-820 652,-40 1972,-141 2385,396 206,266 309,731 198,1144 -225,837 -1014,833 -1991,872l32 1066c-115,57 -958,147 -1132,137zm-6431 -3001c767,-268 1031,842 404,1072 -754,278 -1093,-832 -404,-1072zm10252 3008c-8,-616 -2,-1236 -2,-1853 0,-706 46,-416 -153,-755 -130,-221 -136,-498 -23,-725 358,-718 1517,-526 1579,280 23,308 -94,447 -245,631 84,69 950,142 1024,141l12 -1212 1107 -71 3 3073c-22,461 -505,729 -900,452 -353,-249 -176,-830 -228,-1293l-1062 -112 -7 1359 -1105 85zm8364 -2689c-245,76 -455,292 -810,60 -180,-118 -346,-379 -267,-700 100,-407 603,-615 973,-352 152,108 163,75 384,80 328,7 656,23 981,36 346,14 565,-113 779,143 195,232 121,544 -68,699 -266,219 -489,33 -838,73 -91,247 -69,2111 -118,2587l-1112 61 96 -2687zm6716 158c-90,-82 -191,-146 -269,-238 -205,-243 -84,-572 155,-671 171,-71 696,-82 923,-94 632,-33 1570,-233 1701,204 194,650 -876,569 -1401,593 85,217 708,544 763,832 68,356 -463,730 -576,1012 683,-11 1687,-277 1627,397 -30,343 -339,362 -691,384 -343,23 -672,49 -1013,67 -296,15 -729,78 -1012,58 -292,-21 -546,-289 -381,-635 105,-219 838,-937 959,-1167l-785 -742zm-10005 710c-104,-153 -937,-839 -1064,-998 -219,-273 -33,-582 213,-668 164,-58 1641,-130 1920,-145 334,-18 588,4 657,306 150,665 -965,479 -1429,573 31,20 147,138 197,179 156,131 544,451 582,629 79,365 -463,756 -576,1019 502,1 1737,-323 1621,432 -51,337 -386,331 -733,356 -316,22 -1791,137 -1993,118 -294,-27 -509,-310 -353,-634 114,-237 826,-917 958,-1167zm5558 -3701c0,-277 -26,-539 289,-520 285,17 244,280 244,552 0,573 106,1149 -302,1101 -330,-39 -231,-618 -231,-1133zm-1454 -485c499,-245 627,480 748,815 283,786 354,796 -365,795 -201,0 -643,24 -816,-4 -346,-57 -20,-632 144,-1097 77,-220 112,-421 289,-509zm-2053 1401c-60,106 -69,194 -196,218 -520,98 -178,-603 -148,-688 67,-190 138,-388 208,-580 76,-210 142,-395 421,-389 274,6 328,203 401,403 96,266 435,1031 311,1180 -168,203 -378,46 -447,-155l-550 11zm-13132 2089c93,179 353,467 495,648l1000 1278c121,151 448,535 503,676 -279,168 -615,443 -896,647 -179,130 -763,592 -914,643l-790 -1104c-114,-162 -708,-1031 -817,-1080l-484 846c-303,546 -574,1309 -1318,1354 -379,22 -796,-146 -982,-364 -201,-236 -335,-602 -255,-1016 119,-623 1365,-2007 1528,-2465l-535 -768c-181,-241 -412,-114 -790,-540 -483,-543 -461,-1399 27,-1911 462,-483 1285,-623 1900,-143 222,173 438,463 510,820 62,307 -11,262 155,508 79,116 183,305 272,384 149,-246 300,-499 448,-753 127,-219 314,-563 464,-769 618,-850 2124,-449 1935,861 -50,343 -264,575 -430,802 -178,242 -343,481 -516,719 -139,192 -414,531 -510,727zm20362 -3531c1268,-300 1488,1491 442,1676 -1251,222 -1473,-1432 -442,-1676zm-9470 1222c0,-912 -120,-1208 373,-1208 545,0 1122,-34 1131,543 8,586 -455,570 -973,594 -5,247 34,501 -254,510 -263,9 -277,-192 -277,-439zm-3011 63c-1,236 -81,455 -362,362 -204,-67 -164,-299 -164,-552 2,-810 -112,-1076 368,-1077 157,0 738,-34 832,56 71,67 78,207 14,286 -115,143 -483,69 -683,82l-5 843zm9909 -886c0,-227 7,-387 245,-393 309,-8 270,255 277,528 138,-67 214,-211 324,-325 121,-126 150,-223 420,-193 220,296 -61,418 -220,605 207,396 617,745 388,968 -358,350 -619,-443 -778,-585 -114,102 -136,96 -139,313 -7,485 -367,340 -431,286 -145,-123 -86,-905 -86,-1204zm-7816 760c0,193 15,380 -113,461 -147,92 -309,28 -374,-75 -84,-136 -19,-319 -49,-480 -45,-241 -776,-1008 -229,-1060 260,-25 317,213 497,568 91,-127 152,-319 255,-465 121,-171 416,-133 449,76 37,233 -435,669 -436,975zm-14656 1486c-262,277 -588,524 -466,1167 77,399 447,768 828,846 -112,373 -712,740 -707,1657 4,714 393,1221 900,1474 625,311 1331,236 1820,-148 484,-381 586,-883 953,-1414l1470 2030c565,1163 1726,938 2172,279 446,-658 115,-1381 -329,-1674 103,-202 366,-289 598,-288 119,1068 1544,1000 1594,-44 494,-33 752,-103 988,-425 362,-492 106,-888 46,-1125l259 -198 12 1866 2192 -186c25,-139 -11,-242 43,-338 256,-2 270,492 982,534 556,34 765,-244 1011,-494 85,54 137,138 231,205 418,298 686,196 1203,182 -71,1095 1044,1231 1442,615 177,-275 114,-414 76,-714 258,-40 391,-17 598,-128 357,-190 181,-292 471,-226l7 521 622 -26c89,244 86,655 626,867 467,184 879,-42 1085,-289 535,-640 -83,-1284 -96,-1335l35 -1099 248 -88c56,110 70,285 112,417 33,103 159,358 159,396 1,147 -336,397 -121,889 268,616 1012,674 1432,164 371,0 754,197 1486,-9 676,-191 894,-556 1044,-619 148,321 205,440 492,600 329,184 606,100 995,99 27,38 2,-13 38,69 67,152 63,246 246,421 398,380 1049,226 1257,-264 23,-53 29,-84 43,-144 4,-20 12,-62 16,-78l14 -52c3,-8 7,-19 9,-26 2,-6 5,-17 9,-25 269,-71 392,-9 642,-174 697,-458 518,-1332 -41,-1626 71,-498 -54,-847 -447,-984 242,-194 474,-302 536,-725 62,-424 -170,-726 -376,-887 -546,-429 -1588,-35 -2287,-112 105,-180 420,-305 506,-939 162,-1180 -947,-1890 -1936,-1525 -232,86 -316,194 -475,281 -130,-118 -207,-246 -419,-310 -281,-86 -366,-11 -592,64 -149,49 -297,-109 -567,-96 -309,15 -364,145 -541,215 -186,-138 -403,-273 -733,-197 -312,72 -399,212 -564,422 -24,-19 -21,-15 -50,-45l-134 -151c-225,-211 -567,-299 -883,-209 -438,124 -572,415 -706,852 -152,-186 -153,-633 -660,-828 -196,-76 -425,-78 -619,-17 -277,87 -296,213 -460,314 -528,-360 -728,-360 -1488,-339 -287,9 -305,90 -505,145 -589,-346 -773,-49 -949,-46 -67,1 -197,-87 -325,-108 -446,-72 -442,161 -679,78 -272,-96 -1222,-136 -1532,63 -156,100 -303,277 -350,503 -76,366 -32,1299 41,1634 -386,-13 -563,-39 -905,125 -228,109 -447,302 -550,495 -320,-151 -426,-419 -1310,-492 -330,-28 -1472,-20 -1751,56 -1235,338 -714,1758 -771,2743 -128,-101 -742,-936 -907,-1136 307,-757 2016,-1918 1071,-3388 -299,-465 -952,-883 -1798,-648 -350,97 -574,275 -772,489 -167,182 -386,660 -502,755 -117,-182 -139,-399 -412,-687 -640,-676 -1583,-886 -2430,-408 -904,512 -1275,1690 -737,2658 69,126 188,239 222,343z"/>
 </g>
</svg>
